<?xml version="1.0" standalone="no"?><!DOCTYPE svg PUBLIC "-//W3C//DTD SVG 1.1//EN" "http://www.w3.org/Graphics/SVG/1.1/DTD/svg11.dtd"><svg t="1554715727752" class="icon" style="" viewBox="0 0 1024 1024" version="1.1" xmlns="http://www.w3.org/2000/svg" p-id="3774" xmlns:xlink="http://www.w3.org/1999/xlink" width="300" height="300"><defs><style type="text/css"></style></defs><path d="M296.775451 462.371164l19.951291-19.951291L101.252801 226.945933c-5.486605-5.486605-5.486605-14.464686 0-19.951291l105.243059-105.243059c5.486605-5.486605 14.464686-5.486605 19.951291 0l30.425718 30.425718-31.922065 31.922065c-3.491476 3.491476-3.491476 9.476863 0 13.467121 3.491476 3.491476 9.476863 3.491476 13.467121 0l31.922065-31.922065 32.91963 32.91963-47.384316 47.384316c-3.491476 3.491476-3.491476 9.476863 0 13.467121 3.491476 3.491476 9.476863 3.491476 13.467121 0l47.384316-47.384316 34.415977 34.415977-31.922065 31.922065c-3.491476 3.491476-3.491476 9.476863 0 13.467121 3.491476 3.491476 9.476863 3.491476 13.467121 0l31.922065-31.922065 32.91963 32.91963L349.646371 319.220653c-3.491476 3.491476-3.491476 9.476863 0 13.467121s9.476863 3.491476 13.467121 0l47.384316-47.384316 31.922065 31.922065 19.951291-19.951291L246.398441 81.30151c-16.459815-16.459815-43.394057-16.459815-59.853872 0L81.30151 186.544569c-16.459815 16.459815-16.459815 43.394057 0 59.853872L296.775451 462.371164z" p-id="3775" fill="#ffffff"></path><path d="M816.506576 651.409644l-214.476376-214.476376-19.951291 19.951291 2.493911 2.493911-47.384316 47.384316c-3.491476 3.491476-3.491476 9.476863 0 13.467121 3.491476 3.491476 9.476863 3.491476 13.467121 0l47.384316-47.384316 34.415977 34.415977-31.922065 31.922065c-3.491476 3.491476-3.491476 9.476863 0 13.467121 3.491476 3.491476 9.476863 3.491476 13.467121 0l31.922065-31.922065 32.91963 32.91963-47.384316 47.384316c-3.491476 3.491476-3.491476 9.476863 0 13.467121s9.476863 3.491476 13.467121 0l47.384316-47.384316 34.415977 34.415977-31.922065 31.922065c-3.491476 3.491476-3.491476 9.476863 0 13.467121s9.476863 3.491476 13.467121 0l31.922065-31.922065 32.91963 32.91963-47.384316 47.384316c-3.491476 3.491476-3.491476 9.476863 0 13.467121 3.491476 3.491476 9.476863 3.491476 13.467121 0l47.384316-47.384316 10.97321 10.97321c5.486605 5.486605 5.486605 14.464686 0 19.951291l-105.243059 105.243059c-5.486605 5.486605-14.464686 5.486605-19.951291 0l-214.476376-214.476376-19.951291 19.951291 214.476376 214.476376c16.459815 16.459815 43.394057 16.459815 59.853872 0l105.243059-105.243059C832.966391 694.803702 832.966391 667.869459 816.506576 651.409644z" p-id="3776" fill="#ffffff"></path><path d="M777.601559 222.456892l22.445202-22.445202c13.467121-13.467121 20.948855-31.922065 20.948855-51.374574 0-19.452509-7.481734-37.40867-20.948855-50.875792-13.467121-13.467121-31.922065-20.948855-50.875792-20.948855-19.452509 0-37.40867 7.481734-50.875792 20.948855l-22.445202 22.445202L133.673648 661.884072c0 0-0.498782 0.498782-0.498782 0.498782-0.498782 0.498782-0.498782 0.498782-0.997565 0.997565-0.498782 0.498782-0.997565 0.997565-0.997565 1.995129 0 0-0.498782 0.498782-0.498782 0.498782L74.81734 785.083293c-4.987823 10.97321-2.992694 23.442767 5.486605 31.922065 5.486605 5.486605 12.469557 8.479299 19.951291 8.479299 3.990258 0 7.980516-0.997565 11.970774-2.493911l119.208962-55.863614c0 0 0.498782-0.498782 0.498782-0.498782 0.498782-0.498782 0.997565-0.498782 1.995129-0.997565 0.498782 0 0.498782-0.498782 0.997565-0.997565 0 0 0.498782-0.498782 0.498782-0.498782L777.601559 222.456892C777.601559 222.456892 777.601559 222.456892 777.601559 222.456892zM225.948368 734.207501l-62.347784-62.347784L685.326839 150.133463l62.347784 62.347784L225.948368 734.207501z" p-id="3777" fill="#ffffff"></path></svg>