<?xml version="1.0" standalone="no"?><!DOCTYPE svg PUBLIC "-//W3C//DTD SVG 1.1//EN" "http://www.w3.org/Graphics/SVG/1.1/DTD/svg11.dtd"><svg t="1554715734653" class="icon" style="" viewBox="0 0 1026 1024" version="1.1" xmlns="http://www.w3.org/2000/svg" p-id="3948" xmlns:xlink="http://www.w3.org/1999/xlink" width="300.5859375" height="300"><defs><style type="text/css"></style></defs><path d="M396.47897 858.69444c119.377793-17.029397 199.880396-126.774399 182.850999-243.743995 0-9.804804-2.408198-17.029397-4.816395-24.426004l-22.017806 2.408198-26.834201 4.816395c0 9.804804 2.408198 17.029397 4.816395 24.426004 14.621199 90.135394-48.679993 175.454393-141.395599 190.247606-92.715606 14.621199-178.034604-48.679993-192.655804-138.987401-14.621199-90.135394 48.679993-175.454393 141.395599-190.247606 9.804804-2.408198 17.029397-2.408198 26.834201 0l-4.816395-26.834201-2.408198-22.017806c-7.396607 0-17.029397 0-24.426004 2.408198C213.627971 453.945238 133.125367 563.69024 150.154764 680.659835S276.929163 878.132034 396.47897 858.69444z" p-id="3949" fill="#ffffff"></path><path d="M52.794777 695.281035C28.368774 524.643037 145.338369 366.218041 315.976366 339.38384c7.396607-2.408198 17.029397-2.408198 24.426004-2.408198l-4.816395-24.426004-2.408198-22.017806c-7.396607 0-17.029397 2.408198-24.426004 2.408198C111.279575 322.354443-25.299629 505.205443 3.94277 700.269444c12.213002 80.502604 51.260205 148.792206 104.756593 202.288594l39.047203-29.242399C99.066573 829.452041 62.427567 765.978834 52.794777 695.281035z" p-id="3950" fill="#ffffff"></path><path d="M681.678365 478.371241l-41.455401 26.834201c14.621199 29.242399 26.834201 60.892995 31.650596 95.123803 26.834201 168.2298-92.715606 326.654796-263.353603 353.488997-36.639006 4.816395-73.105997 4.816395-107.336805-2.408198l-7.396607 43.863598 0 2.408198c39.047203 7.396607 80.502604 9.804804 121.958004 2.408198 197.472199-29.242399 334.051403-212.093398 304.809004-407.1574C713.328962 551.477238 701.287974 512.430035 681.678365 478.371241z" p-id="3951" fill="#ffffff"></path><path d="M1001.108569 41.971443C959.653168 12.729044 881.558762-4.300353 747.55977 98.048043c-214.501596 160.833193-373.098606 465.642197-380.323198 477.855199l-9.804804 19.437594 39.047203 22.017806 12.213002-19.437594c0 0 36.639006-68.289602 95.123803-156.016798l2.408198 0c92.715606 39.047203 173.046195 39.047203 241.335797 4.816395 87.727196-46.271796 124.366202-141.395599 136.579204-178.034604 73.105997-14.621199 119.377793-75.514195 136.579204-134.171006C1030.350967 95.639845 1025.534572 59.00084 1001.108569 41.971443zM974.274367 124.882244c-12.213002 43.863598-51.260205 92.715606-112.1532 99.940198l-17.029397 2.408198-2.408198 17.029397c0 2.408198-26.834201 116.969595-116.969595 163.413405-53.668402 26.834201-119.377793 26.834201-197.472199-4.816395 65.881404-92.715606 151.200403-195.064001 243.743995-268.169998 51.260205-39.047203 146.211994-97.532001 199.880396-56.0766C979.090762 83.426844 981.670974 100.456241 974.274367 124.882244z" p-id="3952" fill="#ffffff"></path></svg>